<svg width="1200px" height="1200px" viewBox="0 0 1200 1200" xmlns="http://www.w3.org/2000/svg" xmlns:xlink="http://www.w3.org/1999/xlink">
  <g id="u3q8wJ0omWdYWrlWjd5ef">
<path style="stroke: rgb(114,114,114); stroke-width: 0; stroke-dasharray: none; stroke-linecap: butt; stroke-dashoffset: 0; stroke-linejoin: round; stroke-miterlimit: 4; fill: rgb(114,114,114); fill-rule: nonzero; opacity: 1;" vector-effect="non-scaling-stroke" transform="matrix(1 0 0 1 0 0)  translate(0, 0)" d="" stroke-linecap="round"/>
</g>
<g id="Db4ksL9sGr0Y5XrgUxWse">
<g>
		<g id="XMd6IWjsYGNaJicHL7xcs">
<path style="stroke: rgb(239,30,48); stroke-width: 0; stroke-dasharray: none; stroke-linecap: butt; stroke-dashoffset: 0; stroke-linejoin: miter; stroke-miterlimit: 4; fill: rgb(247,254,253); fill-rule: nonzero; opacity: 1;" d="M459.48,402.81c1.74,-0.61 2.4,-1.55 1.96,-2.8c-0.27,-0.76 -0.94,-1.35 -2.01,-1.77c-1.08,-0.43 -2.92,-0.77 -5.55,-1.03c-2.92,-0.31 -5.13,-0.86 -6.62,-1.67c-1.48,-0.79 -2.46,-1.85 -2.92,-3.17c-0.44,-1.24 -0.44,-2.51 0,-3.81c0.44,-1.31 1.3,-2.54 2.57,-3.68c1.28,-1.14 2.91,-2.06 4.89,-2.76c2.73,-0.96 5.41,-1.28 8.03,-0.95c0.28,0.05 0.53,0.18 0.74,0.4c0.21,0.22 0.34,0.48 0.4,0.77c0.18,1.74 0.25,3.33 0.22,4.78c0,0.19 -0.06,0.37 -0.17,0.53c-0.12,0.16 -0.26,0.27 -0.44,0.33c-0.21,0.08 -0.42,0.09 -0.64,0.04c-0.21,-0.06 -0.39,-0.18 -0.53,-0.35c-1.01,-1.1 -2.26,-1.88 -3.74,-2.32c-1.49,-0.45 -2.93,-0.44 -4.31,0.05c-0.86,0.31 -1.47,0.72 -1.82,1.23c-0.36,0.51 -0.45,1.03 -0.26,1.55c0.2,0.59 0.82,1.06 1.86,1.43c1.02,0.36 2.81,0.68 5.36,0.95c2.35,0.26 4.24,0.61 5.66,1.04c1.41,0.44 2.47,0.97 3.18,1.59c0.71,0.63 1.22,1.4 1.54,2.3c0.49,1.39 0.5,2.77 0.02,4.14c-0.48,1.37 -1.39,2.62 -2.73,3.75c-1.33,1.13 -3.02,2.06 -5.05,2.77c-3.09,1.09 -6.21,1.4 -9.37,0.93c-0.29,-0.06 -0.55,-0.2 -0.77,-0.41c-0.22,-0.22 -0.37,-0.47 -0.45,-0.76c-0.37,-2.15 -0.61,-4 -0.71,-5.55c-0.02,-0.18 0.03,-0.36 0.16,-0.54c0.12,-0.18 0.27,-0.3 0.47,-0.37c0.21,-0.07 0.44,-0.08 0.69,-0.01c0.24,0.08 0.42,0.22 0.54,0.41c0.84,1.07 1.82,1.89 2.95,2.46c1.12,0.58 2.28,0.89 3.49,0.96c1.2,0.06 2.32,-0.09 3.36,-0.46zM473.85,400.53c-0.24,0.07 -0.47,0.04 -0.68,-0.08c-0.21,-0.12 -0.35,-0.3 -0.42,-0.53c-0.06,-0.23 -0.04,-0.46 0.06,-0.69c0.1,-0.23 0.25,-0.41 0.45,-0.54c0.69,-0.53 1.08,-1.2 1.19,-2.01c0.12,-0.82 -0.06,-2.05 -0.52,-3.68l-2.63,-9.26c-0.46,-1.63 -0.96,-2.77 -1.48,-3.41c-0.52,-0.63 -1.22,-0.99 -2.08,-1.08c-0.24,-0.01 -0.46,-0.09 -0.67,-0.23c-0.2,-0.14 -0.34,-0.32 -0.4,-0.54c-0.07,-0.24 -0.04,-0.47 0.08,-0.69c0.11,-0.21 0.29,-0.35 0.53,-0.42l20.74,-5.88c0.31,-0.09 0.62,-0.06 0.92,0.08c0.31,0.14 0.51,0.37 0.62,0.67c0.83,1.95 1.55,3.81 2.15,5.57c0.11,0.3 0.1,0.59 -0.04,0.85c-0.14,0.26 -0.36,0.44 -0.67,0.53l-0.07,0.02c-0.24,0.07 -0.5,0.05 -0.77,-0.05c-0.27,-0.11 -0.46,-0.26 -0.59,-0.46l-0.24,-0.33c-0.57,-0.83 -1.26,-1.43 -2.07,-1.8c-0.8,-0.37 -1.9,-0.5 -3.29,-0.41c-1.39,0.1 -3.23,0.47 -5.53,1.12v0c-0.24,0.07 -0.43,0.2 -0.59,0.39c-0.15,0.18 -0.23,0.41 -0.25,0.67c-0.01,0.96 0.21,2.26 0.67,3.89l0.58,2.02c0.07,0.24 0.19,0.41 0.37,0.51c0.19,0.1 0.4,0.11 0.64,0.02l0.26,-0.07c1.42,-0.48 2.38,-0.96 2.88,-1.44c0.5,-0.49 0.76,-1.2 0.76,-2.13c-0.02,-0.21 0.04,-0.41 0.17,-0.59c0.12,-0.18 0.3,-0.3 0.52,-0.37c0.24,-0.06 0.47,-0.04 0.68,0.08c0.21,0.12 0.35,0.3 0.42,0.55l1.92,6.74c0.06,0.24 0.04,0.47 -0.08,0.69c-0.11,0.21 -0.29,0.35 -0.53,0.42c-0.23,0.06 -0.44,0.05 -0.64,-0.04c-0.2,-0.09 -0.36,-0.22 -0.46,-0.41c-0.49,-0.79 -1.07,-1.26 -1.76,-1.4c-0.68,-0.15 -1.75,-0.06 -3.2,0.27l-0.26,0.08c-0.25,0.05 -0.43,0.16 -0.54,0.35c-0.1,0.18 -0.11,0.4 -0.05,0.63l0.71,2.49c0.46,1.63 0.95,2.85 1.46,3.66c0.16,0.21 0.35,0.36 0.58,0.45c0.22,0.07 0.46,0.07 0.69,0.01v0c2.45,-0.7 4.33,-1.37 5.64,-2.03c1.3,-0.65 2.21,-1.34 2.73,-2.07c0.52,-0.74 0.8,-1.61 0.85,-2.62l0.02,-0.8c0.02,-0.27 0.11,-0.51 0.28,-0.72c0.17,-0.22 0.37,-0.36 0.61,-0.43c0.31,-0.09 0.6,-0.05 0.85,0.1c0.26,0.16 0.42,0.39 0.49,0.71c0.39,1.86 0.71,3.94 0.98,6.23c0.04,0.32 -0.03,0.61 -0.21,0.89c-0.19,0.28 -0.43,0.46 -0.74,0.55zM502.12,392.73c-0.24,0.06 -0.46,0.01 -0.67,-0.12c-0.2,-0.13 -0.33,-0.32 -0.38,-0.56c-0.05,-0.23 -0.02,-0.46 0.1,-0.68c0.12,-0.22 0.28,-0.39 0.49,-0.51c0.72,-0.48 1.16,-1.12 1.34,-1.93c0.16,-0.81 0.07,-2.04 -0.27,-3.7l-1.99,-9.42c-0.35,-1.66 -0.77,-2.83 -1.25,-3.5c-0.48,-0.67 -1.15,-1.08 -1.99,-1.23c-0.25,-0.02 -0.47,-0.11 -0.66,-0.27c-0.2,-0.15 -0.32,-0.34 -0.37,-0.56c-0.05,-0.25 -0.01,-0.48 0.12,-0.68c0.14,-0.21 0.32,-0.34 0.57,-0.39l21.09,-4.44c0.32,-0.07 0.62,-0.02 0.91,0.14c0.3,0.16 0.48,0.4 0.57,0.71c0.71,2 1.3,3.91 1.77,5.71c0.09,0.31 0.05,0.59 -0.1,0.84c-0.16,0.25 -0.4,0.42 -0.71,0.48l-0.07,0.02c-0.24,0.05 -0.5,0.01 -0.75,-0.11c-0.27,-0.12 -0.46,-0.29 -0.57,-0.49l-0.21,-0.35c-0.52,-0.87 -1.16,-1.52 -1.94,-1.94c-0.78,-0.42 -1.87,-0.63 -3.26,-0.63c-1.39,0 -3.26,0.25 -5.58,0.74v0c-0.25,0.05 -0.46,0.16 -0.62,0.34c-0.17,0.17 -0.27,0.39 -0.3,0.66c-0.08,0.96 0.05,2.26 0.4,3.92l0.43,2.05c0.05,0.25 0.17,0.43 0.35,0.54c0.17,0.12 0.38,0.14 0.63,0.07l0.26,-0.06c1.45,-0.38 2.44,-0.79 2.98,-1.24c0.53,-0.45 0.83,-1.14 0.89,-2.07c0.01,-0.21 0.08,-0.4 0.22,-0.58c0.14,-0.17 0.32,-0.28 0.54,-0.32c0.25,-0.06 0.48,-0.02 0.68,0.12c0.2,0.13 0.33,0.32 0.38,0.57l1.44,6.86c0.06,0.25 0.02,0.48 -0.11,0.68c-0.13,0.2 -0.32,0.33 -0.57,0.39c-0.22,0.04 -0.43,0.02 -0.63,-0.09c-0.2,-0.1 -0.34,-0.24 -0.43,-0.44c-0.43,-0.82 -0.98,-1.33 -1.65,-1.52c-0.68,-0.2 -1.75,-0.18 -3.23,0.06l-0.26,0.05c-0.26,0.04 -0.44,0.14 -0.55,0.31c-0.12,0.18 -0.15,0.4 -0.1,0.64l0.53,2.52c0.35,1.67 0.76,2.92 1.22,3.75c0.14,0.23 0.32,0.39 0.54,0.49c0.22,0.09 0.45,0.11 0.7,0.06v0c2.48,-0.53 4.4,-1.07 5.75,-1.63c1.34,-0.57 2.3,-1.19 2.87,-1.89c0.57,-0.7 0.91,-1.55 1.02,-2.55l0.08,-0.8c0.04,-0.26 0.15,-0.5 0.32,-0.7c0.19,-0.2 0.4,-0.33 0.65,-0.38c0.31,-0.06 0.59,-0.01 0.84,0.16c0.25,0.17 0.39,0.42 0.43,0.74c0.26,1.88 0.45,3.98 0.56,6.28c0.02,0.32 -0.07,0.61 -0.28,0.87c-0.2,0.27 -0.46,0.44 -0.77,0.5zM548.63,384.41c-0.25,0.03 -0.46,-0.03 -0.66,-0.19c-0.19,-0.15 -0.3,-0.35 -0.32,-0.6c-0.03,-0.23 0.02,-0.45 0.14,-0.66c0.14,-0.2 0.31,-0.34 0.53,-0.42c0.9,-0.42 1.51,-1.03 1.82,-1.83c0.32,-0.79 0.38,-2.04 0.19,-3.75l-1.05,-9.46c-0.15,-1.33 -0.45,-2.5 -0.9,-3.51c-0.24,-0.5 -0.64,-0.72 -1.18,-0.66v0c-1.76,0.2 -3.12,0.72 -4.1,1.56c-0.98,0.85 -1.66,2.21 -2.03,4.1l-0.2,0.96c-0.04,0.26 -0.17,0.48 -0.39,0.67c-0.22,0.2 -0.46,0.32 -0.74,0.35l-0.06,0.01c-0.32,0.03 -0.6,-0.05 -0.83,-0.24c-0.22,-0.19 -0.35,-0.45 -0.36,-0.77c-0.07,-2.51 -0.05,-5.01 0.07,-7.51c0,-0.33 0.12,-0.61 0.35,-0.86c0.23,-0.24 0.5,-0.38 0.82,-0.42l24.54,-2.72c0.31,-0.03 0.61,0.04 0.89,0.23c0.27,0.2 0.46,0.45 0.56,0.76c0.7,2.52 1.26,4.96 1.68,7.32c0.06,0.31 -0.01,0.59 -0.19,0.83c-0.18,0.24 -0.43,0.37 -0.75,0.41l-0.07,0.01c-0.27,0.03 -0.53,-0.03 -0.79,-0.18c-0.26,-0.14 -0.43,-0.33 -0.53,-0.57l-0.41,-0.89c-0.77,-1.76 -1.73,-2.95 -2.87,-3.56c-1.14,-0.61 -2.59,-0.82 -4.34,-0.62v0c-0.55,0.06 -0.88,0.36 -1.01,0.9c-0.22,1.09 -0.26,2.29 -0.11,3.62l1.05,9.46c0.19,1.71 0.52,2.91 1,3.62c0.48,0.71 1.21,1.17 2.18,1.39c0.23,0.02 0.43,0.12 0.6,0.29c0.17,0.18 0.27,0.38 0.29,0.61c0.03,0.25 -0.03,0.47 -0.19,0.66c-0.15,0.19 -0.35,0.3 -0.59,0.33zM592.04,381.22c-0.25,0.01 -0.47,-0.07 -0.64,-0.24c-0.18,-0.17 -0.27,-0.38 -0.27,-0.62c-0.01,-0.24 0.05,-0.45 0.19,-0.65c0.14,-0.2 0.33,-0.35 0.56,-0.45c0.72,-0.34 1.22,-0.89 1.49,-1.65c0.27,-0.75 0.39,-1.98 0.33,-3.67l-0.13,-3.99l-0.14,0.01l-10.68,0.34l0.13,3.99c0.05,1.69 0.24,2.91 0.56,3.64c0.32,0.74 0.85,1.26 1.59,1.55c0.24,0.09 0.43,0.23 0.59,0.41c0.16,0.19 0.24,0.4 0.25,0.64c0.01,0.24 -0.07,0.46 -0.24,0.63c-0.17,0.18 -0.38,0.28 -0.63,0.28l-11.14,0.36c-0.25,0.01 -0.46,-0.07 -0.64,-0.24c-0.17,-0.17 -0.27,-0.37 -0.28,-0.62c0,-0.23 0.07,-0.45 0.22,-0.65c0.16,-0.19 0.35,-0.33 0.57,-0.42c0.8,-0.34 1.35,-0.9 1.65,-1.66c0.31,-0.77 0.43,-2 0.38,-3.69l-0.31,-9.63c-0.05,-1.69 -0.26,-2.91 -0.62,-3.66c-0.35,-0.74 -0.93,-1.26 -1.75,-1.55c-0.23,-0.07 -0.42,-0.2 -0.59,-0.39c-0.17,-0.18 -0.25,-0.39 -0.26,-0.62c-0.01,-0.25 0.07,-0.47 0.24,-0.65c0.16,-0.17 0.37,-0.27 0.62,-0.28l11.13,-0.35c0.26,-0.01 0.47,0.07 0.65,0.24c0.18,0.16 0.28,0.37 0.28,0.63c0.01,0.22 -0.06,0.44 -0.21,0.63c-0.14,0.2 -0.32,0.35 -0.55,0.45c-0.73,0.35 -1.22,0.9 -1.49,1.65c-0.28,0.76 -0.39,1.98 -0.33,3.67l0.08,2.68l10.69,-0.34l0.14,-0.01l-0.09,-2.67c-0.05,-1.7 -0.24,-2.91 -0.57,-3.65c-0.31,-0.73 -0.84,-1.25 -1.59,-1.55c-0.23,-0.08 -0.43,-0.22 -0.58,-0.41c-0.15,-0.19 -0.23,-0.39 -0.24,-0.62c-0.01,-0.25 0.07,-0.47 0.23,-0.65c0.17,-0.18 0.38,-0.27 0.63,-0.28l11.1,-0.36c0.25,0 0.46,0.08 0.64,0.24c0.18,0.17 0.28,0.38 0.28,0.64c0.01,0.22 -0.06,0.43 -0.22,0.63c-0.15,0.2 -0.34,0.34 -0.57,0.42c-0.79,0.35 -1.34,0.9 -1.65,1.66c-0.31,0.78 -0.44,2.01 -0.38,3.7l0.31,9.62c0.05,1.7 0.26,2.92 0.61,3.67c0.36,0.74 0.95,1.26 1.76,1.55c0.23,0.07 0.43,0.19 0.6,0.38c0.16,0.19 0.25,0.4 0.26,0.63c0.01,0.25 -0.07,0.46 -0.24,0.64c-0.17,0.18 -0.38,0.27 -0.63,0.28zM609.6,381.01c-0.26,-0.01 -0.47,-0.11 -0.63,-0.29c-0.17,-0.18 -0.24,-0.39 -0.23,-0.64c0.01,-0.23 0.09,-0.44 0.26,-0.63c0.17,-0.18 0.37,-0.31 0.61,-0.37c0.81,-0.29 1.4,-0.8 1.77,-1.54c0.36,-0.74 0.58,-1.96 0.65,-3.65l0.41,-9.62c0.07,-1.7 -0.04,-2.93 -0.34,-3.7c-0.31,-0.77 -0.85,-1.33 -1.63,-1.68c-0.23,-0.09 -0.43,-0.23 -0.58,-0.43c-0.15,-0.2 -0.22,-0.41 -0.21,-0.64c0.01,-0.25 0.11,-0.46 0.29,-0.62c0.18,-0.17 0.39,-0.25 0.65,-0.24l21.54,0.92c0.32,0.01 0.6,0.13 0.83,0.36c0.25,0.23 0.38,0.51 0.39,0.83c0.18,2.11 0.28,4.1 0.3,5.97c0,0.32 -0.1,0.58 -0.32,0.78c-0.21,0.22 -0.48,0.31 -0.8,0.3h-0.07c-0.25,-0.01 -0.49,-0.11 -0.71,-0.29c-0.22,-0.19 -0.36,-0.39 -0.42,-0.62l-0.12,-0.39c-0.28,-0.97 -0.75,-1.76 -1.4,-2.36c-0.65,-0.6 -1.65,-1.07 -3,-1.42c-1.35,-0.34 -3.22,-0.56 -5.6,-0.66v0c-0.25,-0.02 -0.48,0.05 -0.68,0.18c-0.2,0.12 -0.35,0.31 -0.45,0.56c-0.31,0.91 -0.5,2.21 -0.58,3.9l-0.09,2.1c-0.01,0.25 0.06,0.45 0.2,0.6c0.14,0.16 0.34,0.23 0.59,0.22l0.28,0.01c1.49,-0.01 2.55,-0.16 3.18,-0.46c0.64,-0.31 1.1,-0.91 1.39,-1.79c0.05,-0.2 0.16,-0.37 0.34,-0.5c0.18,-0.14 0.38,-0.2 0.61,-0.19c0.25,0.01 0.46,0.11 0.63,0.29c0.16,0.18 0.24,0.4 0.23,0.65l-0.3,7c-0.01,0.26 -0.1,0.47 -0.28,0.63c-0.18,0.17 -0.4,0.25 -0.65,0.23c-0.23,0 -0.43,-0.08 -0.59,-0.23c-0.17,-0.15 -0.27,-0.33 -0.3,-0.53c-0.22,-0.91 -0.63,-1.53 -1.23,-1.89c-0.61,-0.36 -1.65,-0.6 -3.13,-0.74l-0.28,-0.01c-0.26,-0.03 -0.46,0.02 -0.61,0.16c-0.15,0.15 -0.24,0.35 -0.25,0.59l-0.11,2.58c-0.07,1.7 0.01,3.01 0.25,3.93c0.08,0.26 0.22,0.46 0.4,0.61c0.19,0.14 0.41,0.22 0.66,0.23v0c2.55,0.11 4.54,0.05 5.98,-0.16c1.44,-0.21 2.52,-0.58 3.25,-1.11c0.72,-0.54 1.26,-1.28 1.62,-2.22l0.27,-0.75c0.11,-0.25 0.27,-0.45 0.5,-0.6c0.22,-0.15 0.46,-0.22 0.71,-0.21c0.32,0.01 0.58,0.13 0.77,0.36c0.2,0.23 0.28,0.5 0.25,0.82c-0.22,1.89 -0.56,3.97 -1.03,6.22c-0.06,0.32 -0.22,0.58 -0.48,0.78c-0.25,0.21 -0.55,0.31 -0.87,0.3zM649.97,383.52c-0.26,-0.04 -0.46,-0.15 -0.6,-0.35c-0.15,-0.19 -0.21,-0.41 -0.17,-0.66c0.03,-0.23 0.14,-0.43 0.32,-0.6c0.19,-0.17 0.4,-0.27 0.64,-0.32c0.84,-0.2 1.47,-0.66 1.9,-1.36c0.44,-0.7 0.77,-1.9 1,-3.57l1.32,-9.54c0.23,-1.68 0.24,-2.92 0.01,-3.72c-0.23,-0.79 -0.72,-1.4 -1.46,-1.83c-0.23,-0.1 -0.4,-0.26 -0.53,-0.47c-0.14,-0.22 -0.19,-0.43 -0.16,-0.66c0.04,-0.25 0.15,-0.45 0.35,-0.6c0.19,-0.15 0.42,-0.2 0.67,-0.17l13.72,1.9c3.58,0.49 6.26,1.53 8.02,3.1c1.76,1.58 2.48,3.52 2.16,5.84c-0.2,1.47 -0.8,2.73 -1.78,3.75c-0.99,1.02 -2.34,1.73 -4.04,2.14c-1.71,0.41 -3.74,0.46 -6.08,0.13c-1.45,-0.2 -3.08,-0.53 -4.9,-0.99l-0.28,2.08c-0.24,1.71 -0.2,2.96 0.12,3.77c0.31,0.81 0.95,1.44 1.91,1.9c0.22,0.05 0.4,0.18 0.53,0.4c0.13,0.22 0.18,0.43 0.15,0.66c-0.03,0.25 -0.15,0.45 -0.34,0.6c-0.2,0.15 -0.43,0.21 -0.71,0.19zM660.89,371.53c-0.04,0.24 0,0.47 0.11,0.67c0.11,0.2 0.29,0.35 0.53,0.46c0.95,0.36 1.86,0.6 2.75,0.72c1.42,0.2 2.52,0 3.3,-0.6c0.78,-0.6 1.25,-1.49 1.41,-2.67c0.21,-1.5 -0.11,-2.8 -0.93,-3.91c-0.83,-1.11 -2.06,-1.79 -3.69,-2.03l-1.09,-0.16c-0.25,-0.03 -0.48,0.01 -0.68,0.11c-0.2,0.12 -0.35,0.29 -0.45,0.54c-0.38,1.03 -0.63,2.02 -0.76,2.98zM694.43,366.33c0.25,0.05 0.48,0.18 0.7,0.38c0.21,0.21 0.34,0.44 0.38,0.68l4.22,18.28c0.31,1.28 0.69,2.3 1.14,3.09c0.45,0.77 1,1.41 1.65,1.89c0.21,0.14 0.36,0.3 0.46,0.49c0.1,0.2 0.14,0.39 0.1,0.57c-0.05,0.24 -0.18,0.43 -0.38,0.57c-0.2,0.13 -0.43,0.18 -0.67,0.13l-12.23,-2.46c-0.25,-0.05 -0.45,-0.18 -0.58,-0.38c-0.14,-0.2 -0.18,-0.43 -0.13,-0.67c0.03,-0.18 0.14,-0.35 0.31,-0.49c0.16,-0.13 0.37,-0.22 0.61,-0.24c1.17,-0.26 1.87,-0.92 2.08,-2c0.14,-0.65 0.1,-1.42 -0.09,-2.31l-0.01,0.04c-0.09,-0.37 -0.3,-0.59 -0.64,-0.66l-8.36,-1.67c-0.34,-0.07 -0.62,0.05 -0.84,0.36v-0.04c-0.32,0.48 -0.54,0.98 -0.65,1.52c-0.12,0.58 -0.08,1.15 0.1,1.72c0.2,0.56 0.52,1.07 0.97,1.51c0.16,0.13 0.28,0.29 0.36,0.47c0.08,0.19 0.1,0.38 0.06,0.57c-0.05,0.24 -0.17,0.43 -0.38,0.56c-0.2,0.14 -0.43,0.18 -0.68,0.13l-8.45,-1.7c-0.25,-0.05 -0.44,-0.17 -0.58,-0.38c-0.13,-0.2 -0.17,-0.42 -0.13,-0.67c0.04,-0.18 0.14,-0.34 0.32,-0.48c0.16,-0.14 0.37,-0.23 0.61,-0.28c1,-0.17 1.89,-0.59 2.69,-1.25c0.8,-0.66 1.73,-1.71 2.79,-3.16l7.24,-10.05c0.3,-0.43 0.49,-0.85 0.57,-1.28c0.19,-0.92 -0.06,-1.73 -0.73,-2.43c-0.16,-0.15 -0.27,-0.32 -0.34,-0.52c-0.06,-0.2 -0.07,-0.4 -0.03,-0.61c0.06,-0.26 0.18,-0.47 0.38,-0.6c0.2,-0.14 0.43,-0.18 0.68,-0.13zM684.49,378.61c-0.04,0.25 0.1,0.4 0.44,0.47l5.63,1.13c0.33,0.07 0.52,-0.02 0.57,-0.26l-0.01,-0.29l-1.55,-7.26c-0.07,-0.26 -0.16,-0.41 -0.27,-0.43c-0.11,-0.02 -0.25,0.08 -0.41,0.3l-4.27,6.08v0zM718.32,394.25c1.78,0.49 2.85,0.1 3.2,-1.18c0.22,-0.78 0,-1.65 -0.64,-2.6c-0.63,-0.97 -1.95,-2.3 -3.96,-4.02c-2.23,-1.91 -3.73,-3.63 -4.49,-5.14c-0.76,-1.5 -0.96,-2.93 -0.59,-4.28c0.35,-1.26 1.07,-2.3 2.18,-3.12c1.1,-0.83 2.51,-1.34 4.21,-1.55c1.7,-0.21 3.56,-0.04 5.59,0.52c2.79,0.76 5.16,2.03 7.12,3.8c0.21,0.2 0.33,0.45 0.38,0.75c0.05,0.3 0.02,0.59 -0.11,0.86c-0.85,1.53 -1.69,2.88 -2.53,4.05c-0.12,0.15 -0.27,0.27 -0.45,0.33c-0.19,0.07 -0.37,0.08 -0.54,0.03c-0.23,-0.06 -0.41,-0.17 -0.55,-0.34c-0.15,-0.17 -0.23,-0.36 -0.24,-0.58c-0.2,-1.49 -0.79,-2.84 -1.76,-4.05c-0.95,-1.22 -2.14,-2.02 -3.56,-2.41c-0.88,-0.24 -1.62,-0.25 -2.2,-0.03c-0.58,0.22 -0.95,0.59 -1.09,1.13c-0.17,0.6 0.07,1.34 0.7,2.22c0.64,0.89 1.93,2.17 3.87,3.85c1.78,1.56 3.13,2.92 4.05,4.08c0.91,1.17 1.48,2.21 1.71,3.13c0.22,0.92 0.21,1.84 -0.04,2.76c-0.39,1.43 -1.18,2.56 -2.35,3.41c-1.18,0.86 -2.64,1.37 -4.38,1.53c-1.75,0.16 -3.66,-0.04 -5.73,-0.61c-3.17,-0.87 -5.91,-2.4 -8.23,-4.58c-0.2,-0.22 -0.33,-0.48 -0.39,-0.78c-0.06,-0.3 -0.04,-0.6 0.06,-0.88c0.93,-1.98 1.78,-3.63 2.58,-4.96c0.09,-0.16 0.23,-0.28 0.43,-0.36c0.2,-0.08 0.4,-0.09 0.6,-0.03c0.22,0.06 0.42,0.19 0.58,0.38c0.15,0.2 0.22,0.42 0.2,0.65c0.09,1.35 0.43,2.59 1.02,3.7c0.6,1.11 1.38,2.04 2.33,2.78c0.94,0.73 1.95,1.25 3.02,1.54zM737.87,402.77c-0.24,-0.08 -0.41,-0.23 -0.52,-0.45c-0.1,-0.22 -0.11,-0.45 -0.03,-0.68c0.08,-0.22 0.22,-0.4 0.42,-0.53c0.2,-0.14 0.42,-0.19 0.66,-0.16c0.99,0.01 1.8,-0.28 2.43,-0.87c0.62,-0.58 1.22,-1.68 1.78,-3.31l3.12,-8.99c0.44,-1.26 0.67,-2.44 0.68,-3.55c0.01,-0.56 -0.25,-0.93 -0.78,-1.11v0c-1.66,-0.58 -3.12,-0.69 -4.36,-0.35c-1.25,0.34 -2.45,1.29 -3.59,2.83l-0.6,0.78c-0.14,0.22 -0.36,0.36 -0.64,0.44c-0.29,0.09 -0.56,0.08 -0.82,-0.01l-0.07,-0.02c-0.3,-0.11 -0.51,-0.29 -0.64,-0.56c-0.12,-0.28 -0.12,-0.56 0.01,-0.86c1.02,-2.29 2.11,-4.54 3.29,-6.75c0.15,-0.29 0.38,-0.49 0.69,-0.62c0.31,-0.12 0.62,-0.13 0.92,-0.03l23.32,8.09c0.31,0.11 0.54,0.3 0.7,0.59c0.17,0.29 0.23,0.6 0.2,0.93c-0.47,2.58 -1.01,5.02 -1.64,7.33c-0.08,0.31 -0.26,0.53 -0.52,0.67c-0.27,0.14 -0.55,0.15 -0.86,0.05l-0.06,-0.03c-0.26,-0.09 -0.47,-0.25 -0.64,-0.5c-0.18,-0.23 -0.26,-0.48 -0.24,-0.74l0.01,-0.99c0.06,-1.92 -0.29,-3.4 -1.06,-4.44c-0.76,-1.04 -1.98,-1.85 -3.65,-2.43v0c-0.52,-0.18 -0.95,-0.05 -1.3,0.39c-0.67,0.88 -1.22,1.95 -1.66,3.21l-3.12,8.99c-0.56,1.63 -0.78,2.86 -0.65,3.71c0.14,0.85 0.6,1.58 1.38,2.19c0.2,0.12 0.33,0.29 0.41,0.52c0.08,0.24 0.08,0.46 0.01,0.68c-0.08,0.24 -0.23,0.41 -0.45,0.51c-0.23,0.11 -0.46,0.12 -0.69,0.04z" stroke-linecap="round"/>
</g>
</g>
</g>
<g id="pjmgA6nKvyc7eX0B1qhDW">
<path style="stroke: rgb(193,193,193); stroke-width: 0; stroke-dasharray: none; stroke-linecap: butt; stroke-dashoffset: 0; stroke-linejoin: miter; stroke-miterlimit: 4; fill: rgb(114,114,114); fill-rule: nonzero; opacity: 1;" transform="matrix(1 0 0 1 0 0)  translate(0, 0)" d="" stroke-linecap="round"/>
</g>
<g id="hEuC5P6JVgTS1Sjo7U3AY">
<path style="stroke: rgb(193,193,193); stroke-width: 0; stroke-dasharray: none; stroke-linecap: butt; stroke-dashoffset: 0; stroke-linejoin: miter; stroke-miterlimit: 4; fill: rgb(239,30,48); fill-rule: nonzero; opacity: 1;" transform="matrix(1 0 0 1 0 0)  translate(0, 0)" d="" stroke-linecap="round"/>
</g>
<g id="MQ9Dxn6NedXpZjgZM6f0H">
<g style="">
		<g id="QTWozTDiDOHBj8l3BFEe1">
<path style="stroke: rgb(193,193,193); stroke-width: 0; stroke-dasharray: none; stroke-linecap: butt; stroke-dashoffset: 0; stroke-linejoin: miter; stroke-miterlimit: 4; fill: rgb(0,0,0); fill-rule: nonzero; opacity: 1;" transform="matrix(0.992365 0 0 0.992438 591.458362 581.289632) matrix(1 0 0 1 0 0)  translate(-499.242503, -515.243011)" d="M 210.23 800.82 C 190.00 799.13 171.90 789.36 157.69 772.48 C 150.90 764.42 142.71 748.36 141.00 739.75 C 140.17 735.57 139.81 680.07 139.68 536.75 C 139.48 314.75 138.79 334.94 147.12 318.90 C 155.75 302.29 168.85 291.11 186.50 285.29 C 193.86 282.87 196.16 282.62 215.25 282.23 L 236.00 281.80 L 236.00 276.79 C 236.00 259.68 247.17 241.62 262.39 234.13 C 270.70 230.04 277.63 228.68 287.50 229.20 C 307.12 230.23 324.10 244.93 329.47 265.54 C 330.31 268.77 331.00 273.80 331.00 276.71 L 331.00 282.00 L 392.00 282.00 L 453.00 282.00 L 453.02 293.75 C 453.05 313.56 456.30 323.69 466.04 334.35 C 469.65 338.30 473.43 341.09 478.71 343.70 C 485.43 347.02 487.23 347.46 495.65 347.83 C 503.62 348.18 506.03 347.89 511.28 345.98 C 519.48 342.99 523.50 340.34 529.32 334.11 C 538.60 324.15 542.44 311.39 541.82 292.50 L 541.50 282.50 L 611.61 282.24 L 681.71 281.99 L 682.28 274.74 C 683.89 254.47 694.97 238.92 712.88 231.82 C 717.51 229.98 720.53 229.58 730.00 229.55 C 740.93 229.50 741.84 229.66 748.31 232.73 C 765.15 240.70 777.00 259.22 777.00 277.55 L 777.00 282.00 L 786.91 282.00 C 800.22 282.00 810.55 284.13 820.39 288.89 C 834.12 295.54 847.92 310.07 853.48 323.75 C 859.35 338.20 859.09 327.51 858.77 540.50 L 858.48 735.50 L 856.18 742.97 C 846.76 773.47 822.94 794.34 791.00 800.08 C 786.15 800.95 712.45 801.28 501.50 801.38 C 345.85 801.45 214.78 801.20 210.23 800.82 M 445.39 719.12 C 453.39 715.18 461.32 707.18 465.31 699.01 L 468.50 692.50 L 468.81 651.64 C 469.15 607.66 468.66 600.90 464.50 592.42 C 461.13 585.52 452.31 576.79 445.18 573.29 C 440.05 570.77 438.48 570.50 429.00 570.51 C 419.72 570.52 417.83 570.83 412.78 573.19 C 401.24 578.58 392.39 590.12 390.01 602.89 C 389.44 605.91 389.00 625.43 389.00 647.43 C 389.00 690.00 389.40 693.88 394.70 702.93 C 400.05 712.06 410.66 719.96 420.36 722.02 C 428.08 723.67 438.66 722.44 445.39 719.12 M 597.78 720.33 C 613.09 716.50 627.18 701.92 631.47 685.47 C 632.70 680.73 633.00 672.83 633.00 644.93 C 633.00 625.87 632.55 607.85 632.00 604.89 C 627.82 582.31 606.58 564.96 583.20 565.01 C 566.29 565.05 549.36 575.37 541.34 590.53 C 536.08 600.48 535.93 601.92 535.94 643.93 C 535.95 680.19 536.08 683.29 537.93 688.53 C 540.66 696.30 543.98 701.66 549.56 707.31 C 558.61 716.46 566.43 720.46 578.00 721.86 C 585.56 722.77 589.15 722.49 597.78 720.33 M 756.17 721.55 C 771.05 718.40 784.08 708.38 790.24 695.37 L 793.50 688.50 L 793.80 649.77 C 793.99 625.42 793.71 608.91 793.05 605.30 C 789.56 586.43 774.28 571.70 755.05 568.67 L 748.00 567.56 L 748.00 553.42 L 748.00 539.29 L 754.32 538.70 C 777.06 536.58 794.76 518.00 797.54 493.34 C 798.99 480.48 793.83 466.86 783.63 456.62 C 780.26 453.24 775.15 449.21 772.28 447.69 C 762.59 442.53 757.37 442.04 712.25 442.02 L 671.00 442.00 L 671.00 461.00 L 671.00 480.00 L 693.01 480.00 L 715.03 480.00 L 720.43 475.60 C 730.28 467.58 741.33 467.62 749.22 475.72 C 756.13 482.81 757.78 491.24 753.88 499.54 C 747.19 513.77 729.12 516.14 718.85 504.14 L 715.31 500.00 L 693.15 500.00 L 671.00 500.00 L 671.00 519.33 L 671.00 538.66 L 700.75 538.58 L 730.50 538.50 L 730.50 553.36 L 730.50 568.22 L 725.00 570.25 C 717.90 572.87 709.77 578.25 705.94 582.86 C 704.27 584.86 701.46 589.42 699.70 593.00 L 696.50 599.50 L 696.50 644.50 L 696.50 689.50 L 699.74 696.00 C 709.91 716.38 732.43 726.58 756.17 721.55 M 278.50 711.50 C 289.22 709.26 299.31 703.70 307.58 695.48 C 323.33 679.81 329.89 658.50 325.57 636.96 C 322.99 624.05 318.12 615.03 308.55 605.39 C 300.07 596.85 295.93 594.17 284.50 589.86 L 277.50 587.22 L 277.23 563.61 L 276.96 540.00 L 268.48 540.00 L 260.00 540.00 L 260.00 563.39 L 260.00 586.77 L 253.44 588.01 C 242.09 590.15 231.70 595.97 222.42 605.38 C 208.96 619.02 203.26 633.86 204.31 652.55 C 206.49 691.55 241.38 719.26 278.50 711.50 M 259.00 524.38 L 259.00 509.76 L 255.87 506.20 C 251.65 501.40 250.00 497.08 250.00 490.85 C 250.00 480.75 256.24 472.94 266.42 470.30 C 269.19 469.58 273.04 469.27 274.98 469.61 C 279.47 470.39 286.29 474.28 288.82 477.50 L 290.79 480.00 L 314.42 480.00 L 338.04 480.00 L 337.77 461.25 L 337.50 442.50 L 295.50 442.22 C 269.04 442.04 251.09 442.33 247.00 443.00 C 228.03 446.12 212.50 461.49 208.38 481.24 C 204.95 497.67 210.40 513.45 223.99 526.41 C 232.49 534.52 242.31 538.37 255.75 538.88 L 259.00 539.00 L 259.00 524.38 M 310.58 538.00 L 338.00 538.00 L 338.00 519.00 L 338.00 500.00 L 314.75 500.01 L 291.50 500.01 L 289.07 503.58 C 287.73 505.54 284.93 508.13 282.83 509.32 L 279.02 511.50 L 279.01 524.58 C 279.00 531.78 279.31 537.98 279.70 538.36 C 280.08 538.75 281.02 538.82 281.78 538.53 C 282.54 538.24 295.50 538.00 310.58 538.00 M 417.78 524.61 L 418.06 511.18 L 415.10 509.07 C 413.47 507.91 411.17 505.40 409.99 503.48 L 407.84 500.00 L 384.92 500.00 L 362.00 500.00 L 362.01 515.75 C 362.02 524.41 362.28 533.08 362.60 535.00 L 363.18 538.50 L 390.34 538.27 L 417.50 538.04 L 417.78 524.61 M 571.58 524.53 C 571.66 511.41 571.57 510.76 569.43 509.36 C 568.21 508.56 566.02 506.12 564.59 503.95 L 561.97 500.00 L 539.49 500.00 L 517.00 500.00 L 517.00 519.25 L 517.00 538.50 L 544.25 538.37 L 571.50 538.24 L 571.58 524.53 M 620.58 538.00 L 646.00 538.00 L 646.00 519.07 L 646.00 500.14 L 624.49 500.04 L 602.98 499.93 L 597.49 505.56 L 592.00 511.18 L 592.00 525.20 C 592.00 537.57 592.19 539.14 593.58 538.61 C 594.45 538.27 606.60 538.00 620.58 538.00 M 492.00 519.00 L 492.00 500.00 L 469.72 500.00 L 447.43 500.00 L 445.65 503.02 C 444.67 504.68 442.54 507.02 440.93 508.21 L 438.00 510.38 L 438.00 524.19 L 438.00 538.00 L 465.00 538.00 L 492.00 538.00 L 492.00 519.00 M 411.56 476.91 C 420.40 467.62 433.50 467.23 442.98 475.98 L 447.33 480.00 L 469.67 480.00 L 492.00 480.00 L 492.00 460.99 L 492.00 441.99 L 427.25 442.24 L 362.50 442.50 L 362.23 458.00 C 362.09 466.52 362.22 474.96 362.53 476.75 L 363.09 480.00 L 385.86 480.00 L 408.63 480.00 L 411.56 476.91 M 565.56 476.91 C 574.47 467.53 587.48 467.21 597.14 476.13 L 601.33 480.00 L 623.67 480.00 L 646.00 480.00 L 646.00 461.00 L 646.00 442.00 L 581.50 442.00 L 517.00 442.00 L 517.00 461.00 L 517.00 480.00 L 539.81 480.00 L 562.63 480.00 L 565.56 476.91 M 832.93 399.56 C 836.96 395.70 837.07 391.22 833.25 386.98 L 830.50 383.92 L 499.08 383.94 L 167.66 383.95 L 164.83 386.66 C 162.61 388.79 162.00 390.27 162.00 393.53 C 162.00 398.14 163.89 400.55 168.64 401.97 C 170.22 402.45 319.46 402.76 500.68 402.67 L 829.87 402.50 L 832.93 399.56 M 309.46 341.02 C 317.79 336.99 325.41 327.54 327.40 318.79 L 328.02 316.07 L 319.76 316.15 C 310.16 316.25 307.30 315.34 303.69 311.04 C 299.77 306.38 298.82 301.24 299.09 286.11 C 299.23 278.27 298.89 271.44 298.29 270.00 C 296.94 266.80 292.17 262.02 289.18 260.88 C 282.28 258.25 273.78 261.55 269.87 268.37 C 267.55 272.41 267.50 273.04 267.50 297.50 C 267.50 321.83 267.56 322.62 269.86 327.00 C 274.13 335.15 281.16 340.92 289.50 343.12 C 294.57 344.46 304.51 343.42 309.46 341.02 M 728.50 341.61 C 734.72 338.66 740.20 333.03 743.20 326.50 C 745.31 321.91 745.53 319.86 745.83 301.50 C 746.01 290.50 745.87 279.16 745.52 276.30 C 743.40 259.32 723.84 253.90 715.55 268.00 C 713.72 271.12 713.48 273.31 713.36 288.22 C 713.20 306.91 712.49 309.41 706.05 313.75 C 703.20 315.66 701.38 316.00 693.83 316.00 L 684.96 316.00 L 685.59 318.75 C 687.27 326.14 694.96 336.28 701.50 339.75 C 710.57 344.55 720.81 345.26 728.50 341.61 M 493.00 316.88 C 491.63 316.33 489.45 314.89 488.16 313.69 C 483.27 309.13 483.00 307.55 483.00 283.80 C 483.00 259.36 483.51 256.84 489.21 252.66 C 493.21 249.72 501.62 249.34 505.70 251.90 C 512.34 256.07 512.50 256.80 512.50 283.46 C 512.50 307.24 512.47 307.54 510.10 310.87 C 507.64 314.31 501.07 317.99 497.50 317.91 C 496.40 317.89 494.38 317.42 493.00 316.88 M 405.01 625.75 C 405.01 614.61 405.45 603.92 405.99 602.00 C 407.43 596.81 412.69 591.05 418.43 588.38 C 430.91 582.57 445.43 587.94 451.13 600.48 C 452.71 603.95 452.96 607.32 452.98 625.25 L 453.00 646.00 L 429.00 646.00 L 405.00 646.00 L 405.01 625.75 M 576.99 704.66 C 567.10 702.51 560.01 696.56 555.30 686.50 L 552.50 680.50 L 552.16 654.25 L 551.83 628.00 L 584.41 628.00 L 617.00 628.00 L 617.00 652.39 C 617.00 674.33 616.79 677.47 614.91 683.57 C 610.09 699.15 593.67 708.28 576.99 704.66 M 722.03 684.46 C 717.39 682.39 715.18 680.27 712.80 675.61 C 710.34 670.79 710.16 664.56 712.35 659.95 C 713.27 658.03 718.68 651.80 724.38 646.12 C 733.26 637.27 735.01 635.94 736.62 636.83 C 737.65 637.40 743.44 642.85 749.48 648.93 L 760.47 660.00 L 749.98 670.55 C 744.22 676.35 738.13 681.96 736.45 683.01 C 732.09 685.73 726.20 686.33 722.03 684.46 M 756.58 636.08 L 744.70 624.17 L 750.39 618.20 C 754.54 613.85 757.25 611.91 760.44 611.02 C 773.63 607.32 785.66 619.43 782.06 632.79 C 780.93 636.96 771.92 648.00 769.63 648.00 C 768.99 648.00 763.12 642.64 756.58 636.08 M 257.24 695.94 C 251.79 694.87 241.00 690.05 241.00 688.69 C 241.00 688.12 247.38 681.22 255.17 673.37 L 269.33 659.08 L 289.74 658.79 L 310.15 658.50 L 309.57 661.50 C 309.25 663.15 307.62 667.30 305.94 670.72 C 296.89 689.24 276.58 699.75 257.24 695.94 M 226.74 673.81 C 218.59 659.83 218.00 642.37 225.23 628.75 C 226.91 625.59 228.63 623.00 229.06 623.00 C 229.86 623.00 250.06 645.22 252.73 649.03 C 254.13 651.02 253.80 651.56 246.83 658.82 C 242.76 663.04 237.15 669.11 234.35 672.31 L 229.26 678.11 L 226.74 673.81 M 264.94 638.25 C 262.56 635.64 255.98 628.63 250.31 622.68 C 244.64 616.74 240.00 611.46 240.00 610.95 C 240.00 609.64 246.59 606.47 253.42 604.48 C 257.71 603.23 261.74 602.89 268.39 603.19 C 276.12 603.55 278.53 604.11 284.30 606.88 C 296.70 612.84 306.53 624.84 309.58 637.75 L 310.82 643.00 L 290.04 643.00 L 269.25 643.00 L 264.94 638.25 Z" stroke-linecap="round"/>
</g>
</g>
</g>

  </svg>